<?xml version="1.0" standalone="no"?>
<!DOCTYPE svg PUBLIC "-//W3C//DTD SVG 20010904//EN"
 "http://www.w3.org/TR/2001/REC-SVG-20010904/DTD/svg10.dtd">
<svg version="1.0" xmlns="http://www.w3.org/2000/svg"
 width="260.000000pt" height="260.000000pt" viewBox="0 0 260.000000 260.000000"
 preserveAspectRatio="xMidYMid meet">
<metadata>
Created by potrace 1.14, written by Peter Selinger 2001-2017
</metadata>
<g transform="translate(0.000000,260.000000) scale(0.100000,-0.100000)"
fill="#000000" stroke="none">
<path d="M1269 1746 c-2 -2 -29 -7 -59 -10 -144 -17 -253 -57 -234 -87 3 -5
-1 -6 -9 -3 -20 7 -28 -8 -15 -26 8 -12 8 -11 3 5 -5 16 -4 17 6 8 10 -10 9
-15 -1 -27 -7 -9 -17 -13 -23 -9 -6 4 -8 0 -4 -10 4 -12 -2 -22 -21 -32 -27
-16 -27 -16 -2 -10 21 5 22 4 7 -5 -9 -6 -21 -9 -26 -6 -5 3 -15 -1 -22 -10
-11 -13 -11 -15 2 -12 8 1 14 -1 14 -7 0 -5 -6 -10 -12 -11 -12 -2 -17 9 -14
29 2 13 -18 7 -36 -12 -23 -23 -40 -28 -131 -36 -40 -3 -78 -8 -85 -10 -6 -2
-23 -6 -37 -9 -116 -20 -276 -97 -348 -166 -48 -46 -64 -79 -58 -116 4 -20 -1
-27 -28 -38 -24 -10 -32 -19 -31 -37 0 -35 13 -49 41 -49 14 0 34 -11 47 -26
20 -23 39 -31 77 -33 9 -1 16 -9 17 -19 1 -9 2 -22 4 -27 1 -6 -1 -18 -6 -28
-7 -16 -8 -16 -20 -1 -9 14 -14 14 -20 4 -6 -9 -4 -11 6 -6 8 4 6 1 -3 -7 -19
-15 -25 -32 -8 -22 5 3 10 0 10 -7 0 -9 3 -9 10 2 5 8 10 10 10 5 0 -6 -6 -17
-12 -24 -11 -11 -10 -13 3 -8 9 3 21 1 27 -5 8 -8 13 -6 18 7 6 16 8 15 20 -6
8 -15 13 -18 14 -9 0 13 2 13 9 1 7 -11 37 -13 132 -12 155 2 172 4 181 16 5
6 8 5 8 -4 0 -11 3 -11 17 0 11 10 14 10 9 2 -4 -7 -2 -13 3 -13 6 0 11 5 11
12 0 6 7 3 15 -8 11 -14 14 -15 9 -2 -4 12 -1 16 13 13 10 -2 18 -4 18 -5 0
-1 8 -3 18 -5 9 -2 17 1 17 6 0 6 5 7 10 4 6 -4 8 -12 4 -18 -3 -7 1 -4 9 6
18 22 27 22 27 0 0 -15 2 -14 16 3 13 16 15 16 10 2 -7 -22 1 -23 20 -3 14 13
49 10 40 -4 -3 -4 4 -8 15 -8 10 -1 19 3 19 8 0 6 -4 7 -10 4 -5 -3 -10 -1
-10 4 0 14 13 14 28 -1 8 -8 15 -8 28 3 10 8 15 9 11 3 -4 -7 0 -14 8 -18 8
-3 15 -1 15 3 0 5 7 12 16 15 13 5 14 3 6 -6 -8 -10 -5 -13 14 -13 13 0 24 3
24 8 0 12 30 8 31 -5 0 -7 4 -4 9 7 6 13 9 15 9 5 1 -10 12 -15 35 -15 19 0
32 3 30 7 -3 4 0 8 5 8 6 0 11 -3 11 -7 0 -5 14 -8 30 -8 22 0 29 4 25 14 -5
11 -3 12 10 1 20 -16 127 -21 118 -6 -3 6 0 6 7 -1 11 -10 16 -9 27 5 8 9 12
12 9 7 -2 -6 4 -17 15 -24 18 -11 21 -9 26 9 4 14 8 18 13 10 4 -7 26 -13 48
-14 23 -1 39 1 36 6 -3 5 5 6 19 3 14 -4 28 -2 32 5 5 8 10 8 20 0 22 -19 63
-19 70 -1 6 14 8 14 20 -2 11 -16 13 -16 19 -1 5 13 9 14 20 5 8 -7 34 -12 58
-13 24 0 49 -5 57 -12 8 -6 12 -6 9 -1 -4 7 31 10 97 11 74 0 109 5 121 15 10
8 15 9 11 2 -4 -6 -3 -14 3 -18 5 -3 10 -1 10 5 0 6 5 8 10 5 6 -3 10 0 10 7
0 11 2 10 9 0 6 -11 10 -10 15 4 6 16 8 15 28 -2 12 -11 18 -13 14 -6 -7 11 4
16 29 13 6 -1 2 5 -7 12 -14 11 -15 16 -5 27 10 12 9 12 -4 2 -11 -8 -25 -9
-49 -2 -18 5 -36 7 -41 5 -10 -7 -1 42 12 67 7 13 21 18 54 18 24 0 47 5 50
10 4 7 13 6 27 -1 12 -7 34 -8 57 -3 20 4 41 8 46 8 6 1 21 7 35 15 14 8 26
14 28 13 8 -6 22 0 17 7 -3 5 -17 8 -30 5 -14 -2 -25 0 -25 5 0 5 16 12 35 15
49 10 69 50 38 76 -12 9 -49 20 -82 24 -62 7 -65 10 -76 66 -2 12 -13 37 -24
56 l-20 34 25 6 c19 5 22 9 14 19 -6 7 -22 12 -35 10 -26 -2 -32 3 -114 89
-29 32 -64 62 -78 67 -16 6 -22 5 -18 -1 3 -6 2 -10 -3 -10 -13 0 -112 80
-112 91 0 5 -7 9 -16 9 -10 0 -14 6 -11 14 4 11 1 13 -10 9 -13 -5 -15 -2 -10
11 4 9 3 15 -2 11 -5 -3 -12 -1 -16 5 -10 16 -157 74 -215 85 -14 3 -36 8 -50
11 -27 7 -384 16 -391 10z m79 -124 c9 8 16 8 20 1 4 -5 15 -9 25 -7 22 3 23
-32 1 -40 -14 -5 -15 -4 -5 8 9 11 9 16 0 22 -8 4 -9 3 -5 -5 4 -6 4 -11 -1
-10 -4 1 -10 0 -13 -1 -13 -5 -59 -6 -55 -1 2 4 -14 6 -35 6 -22 0 -36 -4 -33
-10 2 -5 -2 -2 -10 8 -10 12 -17 14 -22 7 -3 -5 -11 -7 -17 -4 -6 4 -8 2 -4
-4 7 -11 -12 -11 -31 1 -6 4 -15 2 -19 -4 -4 -7 -3 -9 4 -5 6 3 14 1 18 -5 4
-8 3 -9 -5 -5 -6 4 -14 0 -17 -8 -3 -9 -10 -16 -16 -16 -5 0 -6 6 -1 13 8 12
9 17 12 37 1 13 31 13 31 -1 0 -5 5 -7 10 -4 6 4 8 10 6 14 -3 4 22 6 55 6 33
-1 63 3 66 8 3 5 10 4 16 -2 7 -7 15 -7 25 1z m220 -11 c6 -1 12 -5 12 -11 0
-12 -22 -9 -33 5 -5 6 -6 2 -3 -8 3 -10 2 -16 -2 -13 -4 2 -14 1 -22 -5 -12
-7 -12 -9 -1 -9 11 0 11 -3 1 -15 -7 -8 -9 -15 -5 -15 4 0 14 8 22 18 14 16
14 16 9 0 -3 -10 -9 -25 -12 -33 -3 -8 -1 -15 6 -15 6 0 8 5 4 11 -4 7 1 10
11 7 10 -1 20 -9 23 -16 2 -7 -2 -11 -10 -10 -7 2 -13 -3 -13 -11 0 -8 6 -15
13 -17 7 -1 8 0 2 3 -5 2 -10 9 -10 14 0 6 4 8 9 4 15 -9 24 14 12 29 -8 10
-7 17 4 26 13 10 19 10 33 -4 10 -9 24 -16 31 -16 7 0 9 -4 6 -10 -3 -5 -1
-10 4 -10 19 0 12 22 -9 27 -11 3 -17 9 -14 14 3 5 13 5 24 -1 11 -6 24 -9 31
-8 6 2 14 -3 17 -11 3 -8 0 -11 -7 -7 -7 5 -9 1 -5 -9 4 -10 2 -15 -7 -13 -8
2 -14 -7 -15 -22 -2 -22 -2 -22 3 -2 2 12 9 20 14 17 5 -4 12 1 15 9 3 9 10
13 15 10 5 -3 6 2 2 12 -5 14 -3 15 15 5 23 -12 30 -33 10 -28 -6 1 -13 -7
-15 -18 -3 -18 -2 -18 5 -2 4 10 12 18 17 18 6 -1 11 8 11 19 1 11 -3 17 -7
14 -5 -3 -9 0 -9 6 0 6 -4 9 -9 5 -5 -3 -12 -1 -15 4 -4 5 -19 8 -34 5 -21 -3
-24 -2 -12 6 12 9 11 10 -7 5 -12 -3 -24 -1 -28 5 -3 6 -11 7 -17 4 -7 -5 -8
-2 -3 7 8 12 6 12 -8 0 -24 -19 -28 -10 -5 12 10 9 18 13 18 8 0 -6 9 -8 21
-6 17 4 19 2 9 -10 -15 -18 1 -20 18 -3 9 9 12 9 12 1 0 -7 9 -10 19 -8 11 2
29 -5 42 -16 12 -10 26 -16 32 -12 5 3 7 0 5 -8 -6 -17 9 -49 23 -49 6 0 3 7
-6 16 -9 9 -13 19 -10 22 8 8 33 -30 30 -47 -3 -21 -36 -40 -42 -23 -3 6 -12
12 -21 12 -14 0 -15 -2 -2 -10 8 -5 12 -11 9 -14 -10 -10 -54 -13 -81 -5 -19
5 -28 4 -28 -4 0 -7 -4 -6 -10 3 -7 11 -10 11 -10 2 0 -9 -5 -10 -17 -4 -10 5
-39 8 -65 6 -34 -1 -48 3 -52 13 -4 10 -2 13 7 10 8 -3 14 3 15 16 1 17 -1 19
-8 7 -8 -12 -10 -12 -11 5 -3 35 -5 39 -18 64 -7 13 -8 21 -3 17 6 -3 13 -2
17 4 3 5 1 10 -4 10 -6 0 -11 6 -11 14 0 10 9 13 33 11 17 -2 38 -4 45 -4z
m42 -10 c0 -5 -7 -12 -16 -15 -9 -4 -14 -9 -11 -13 7 -7 -11 -33 -23 -33 -3 0
-6 10 -5 23 2 12 8 21 14 19 6 -1 14 5 17 13 7 16 24 21 24 6z m-375 -21 c4
-6 12 -7 18 -3 11 8 31 9 50 3 21 -7 54 -5 65 4 9 7 12 5 10 -5 -2 -9 5 -14
17 -13 18 1 20 -6 21 -63 1 -38 -3 -59 -7 -51 -7 10 -9 10 -9 1 0 -7 -7 -13
-15 -13 -8 0 -15 6 -16 13 0 10 -2 10 -6 0 -2 -7 -11 -13 -19 -13 -8 0 -14 6
-15 13 0 10 -2 10 -6 0 -8 -20 -29 -15 -42 10 -9 19 -10 19 -6 2 5 -20 0 -21
-78 -21 -77 0 -83 1 -85 20 -1 17 1 18 8 6 8 -13 10 -12 10 3 0 9 -4 17 -10
17 -5 0 -6 8 -3 18 8 21 43 68 43 57 0 -4 7 -2 15 5 8 7 15 9 15 4 0 -4 5 -3
12 4 15 15 25 15 33 2z m-154 -22 c-4 -13 -6 -29 -3 -37 2 -7 -2 -17 -9 -22
-10 -6 -11 -9 -1 -9 10 0 10 -4 0 -20 -15 -23 -43 -26 -64 -6 -18 18 -1 62 28
71 10 4 18 14 18 23 0 15 2 15 10 2 8 -13 10 -12 10 3 0 9 4 17 10 17 6 0 6
-9 1 -22z m559 6 c0 -8 -19 -13 -24 -6 -3 5 1 9 9 9 8 0 15 -2 15 -3z m-795
-64 c3 -5 1 -10 -4 -10 -6 0 -11 5 -11 10 0 6 2 10 4 10 3 0 8 -4 11 -10z
m955 -531 c7 -11 9 -23 6 -26 -3 -4 0 -13 6 -22 11 -14 10 -14 -7 0 -11 9 -26
14 -33 12 -7 -3 -20 1 -29 9 -15 11 -16 11 -9 -7 4 -11 4 -16 0 -12 -4 4 -14
1 -23 -6 -14 -11 -15 -10 -1 8 8 11 10 17 6 13 -5 -4 -15 -3 -21 2 -9 8 -12 4
-9 -15 2 -21 0 -24 -11 -15 -8 6 -11 18 -8 26 5 15 -8 19 -21 7 -4 -5 -22 -8
-39 -8 -20 0 -31 -5 -30 -12 2 -7 -4 -10 -12 -6 -13 5 -13 7 2 20 11 9 7 9
-11 -2 -16 -9 -25 -12 -22 -6 4 6 0 11 -9 11 -9 0 -14 -4 -11 -9 3 -5 -2 -15
-12 -22 -15 -13 -16 -12 -3 4 9 12 10 17 2 17 -7 0 -9 6 -6 13 4 6 -1 3 -9 -7
-15 -18 -16 -18 -16 -2 0 9 -5 14 -10 11 -6 -4 -8 -10 -5 -15 3 -5 0 -12 -6
-16 -8 -4 -9 -3 -5 4 4 7 2 12 -4 12 -6 0 -8 5 -4 12 4 7 3 8 -5 4 -6 -4 -9
-11 -6 -16 3 -5 1 -12 -5 -15 -6 -4 -9 -1 -8 6 2 6 -3 14 -10 16 -8 3 -10 -1
-5 -14 4 -13 0 -11 -15 7 -12 14 -20 18 -17 9 5 -13 0 -15 -27 -12 -25 3 -29
2 -18 -6 12 -8 11 -10 -7 -8 -12 0 -20 4 -17 8 7 12 -20 17 -38 8 -11 -6 -19
-5 -24 3 -4 6 -3 8 4 4 6 -3 13 -2 16 3 4 5 -2 8 -11 6 -10 -2 -22 -4 -27 -4
-5 -1 -2 -8 5 -18 13 -15 12 -15 -8 -3 -12 8 -19 19 -15 25 3 5 -2 4 -11 -4
-9 -7 -17 -10 -17 -7 0 4 -10 1 -22 -5 -22 -12 -22 -11 -8 6 14 17 14 17 -6 7
-16 -8 -24 -8 -34 1 -10 9 -11 9 -6 0 5 -9 -2 -13 -24 -13 -22 0 -29 4 -24 13
5 8 2 8 -9 -2 -19 -15 -23 -26 -5 -15 7 5 8 3 4 -5 -9 -13 -21 -6 -21 12 0 5
-7 12 -15 14 -13 4 -13 3 0 -7 12 -10 11 -11 -7 -7 -17 4 -23 1 -23 -11 0 -13
-3 -12 -14 4 -13 16 -17 17 -28 5 -8 -8 -8 -11 -1 -7 6 3 15 1 19 -6 4 -7 4
-10 -1 -6 -4 4 -14 3 -22 -4 -11 -9 -13 -8 -11 3 2 8 -4 13 -14 13 -10 -1 -16
1 -14 5 2 3 -11 6 -29 6 -18 0 -31 -3 -28 -7 2 -5 -1 -8 -6 -8 -6 0 -11 4 -11
9 0 5 -11 8 -25 7 -14 0 -25 -4 -25 -8 0 -5 -4 -8 -10 -8 -5 0 -7 8 -4 18 5
13 4 14 -4 3 -6 -8 -17 -11 -25 -8 -10 4 -15 1 -13 -6 1 -7 1 -9 -1 -4 -3 4
-8 5 -12 3 -15 -10 -30 11 -24 33 6 22 9 23 52 16 25 -4 226 -8 446 -9 220 -1
406 -5 412 -9 7 -4 22 -3 33 3 11 6 43 10 70 9 29 -2 56 3 62 9 18 18 46 14
58 -9z m-146 -44 c-4 -8 -11 -15 -16 -15 -6 0 -5 6 2 15 7 8 14 15 16 15 2 0
1 -7 -2 -15z m-854 1 c0 -2 -8 -10 -17 -17 -16 -13 -17 -12 -4 4 13 16 21 21
21 13z m314 -4 c3 -5 -1 -9 -9 -9 -8 0 -12 4 -9 9 3 4 7 8 9 8 2 0 6 -4 9 -8z
m82 -4 c3 -4 -1 -5 -10 -4 -8 1 -18 5 -22 8 -3 4 1 5 10 4 8 -1 18 -5 22 -8z
m84 8 c0 -2 -8 -10 -17 -17 -16 -13 -17 -12 -4 4 13 16 21 21 21 13z m960 -56
c8 -5 11 -10 5 -10 -5 0 -17 5 -25 10 -8 5 -10 10 -5 10 6 0 17 -5 25 -10z"/>
<path d="M1305 1609 c-5 -7 -4 -10 3 -5 6 3 13 2 16 -3 7 -10 37 -9 36 2 0 4
0 10 0 13 0 4 -6 2 -13 -5 -10 -7 -17 -7 -24 0 -8 8 -13 7 -18 -2z"/>
<path d="M1506 1598 c3 -4 9 -8 15 -8 5 0 9 4 9 8 0 5 -7 9 -15 9 -8 0 -12 -4
-9 -9z"/>
<path d="M1590 1540 c0 -5 4 -10 9 -10 5 0 11 -9 14 -21 3 -12 10 -18 16 -14
18 10 13 -7 -6 -20 -13 -10 -14 -13 -2 -20 8 -5 11 -5 7 0 -4 4 0 13 9 20 16
12 10 40 -7 30 -4 -3 -11 6 -14 20 -6 24 -26 36 -26 15z"/>
<path d="M1211 1563 c-9 -15 -12 -15 -20 -4 -5 8 -11 9 -15 3 -3 -5 1 -13 10
-16 19 -7 57 11 49 25 -9 13 -13 11 -24 -8z"/>
<path d="M1240 1550 c-14 -15 -24 -33 -22 -39 2 -6 -2 -10 -8 -9 -7 2 -14 -3
-15 -10 -2 -7 -1 -8 2 -2 2 5 9 8 14 4 5 -3 13 6 18 19 11 29 23 38 57 42 23
2 48 -23 49 -50 0 -19 48 -11 51 9 1 10 9 23 16 27 9 6 10 9 1 9 -15 0 -35
-35 -26 -44 3 -3 -4 -6 -17 -6 -13 0 -20 3 -17 7 4 3 2 12 -4 20 -9 9 -8 17 0
27 10 12 9 14 -6 11 -10 -1 -24 3 -32 9 -11 8 -13 8 -7 -1 8 -15 -5 -17 -19
-4 -6 6 -20 -2 -35 -19z"/>
<path d="M1364 1562 c4 -7 2 -12 -3 -12 -6 0 -11 -4 -11 -10 0 -15 17 -12 23
5 4 8 1 17 -5 21 -7 4 -8 3 -4 -4z"/>
<path d="M1152 1545 c4 -5 0 -13 -9 -20 -16 -12 -9 -40 8 -30 5 4 9 -1 9 -9 0
-9 5 -16 11 -16 5 0 7 -5 3 -12 -4 -7 -3 -8 4 -4 9 5 7 14 -4 31 -9 14 -20 22
-25 19 -5 -3 -9 -1 -9 4 0 6 7 12 15 16 8 3 15 1 15 -4 0 -6 5 -10 10 -10 17
0 11 15 -12 29 -13 7 -20 10 -16 6z"/>
<path d="M1261 1531 c-18 -12 -6 -42 14 -35 8 3 15 11 15 16 0 6 -6 5 -15 -2
-18 -15 -20 1 -3 18 14 14 9 15 -11 3z"/>
<path d="M1302 1520 c7 -10 14 -18 15 -16 6 6 -9 36 -18 36 -5 0 -4 -9 3 -20z"/>
<path d="M1221 1476 c-9 -11 -9 -16 1 -22 7 -4 10 -4 6 1 -4 4 0 14 10 21 9 7
12 14 6 14 -6 0 -17 -6 -23 -14z"/>
<path d="M1290 1480 c0 -5 5 -10 10 -10 6 0 10 5 10 10 0 6 -4 10 -10 10 -5 0
-10 -4 -10 -10z"/>
<path d="M1390 1479 c0 -5 5 -7 10 -4 6 3 10 8 10 11 0 2 -4 4 -10 4 -5 0 -10
-5 -10 -11z"/>
<path d="M1050 1520 c0 -5 5 -10 10 -10 6 0 10 5 10 10 0 6 -4 10 -10 10 -5 0
-10 -4 -10 -10z"/>
<path d="M1015 1511 c-3 -5 0 -13 6 -17 7 -4 9 -3 5 4 -3 5 0 13 6 15 9 4 10
6 1 6 -6 1 -14 -3 -18 -8z"/>
<path d="M1041 1484 c0 -11 3 -14 6 -6 3 7 2 16 -1 19 -3 4 -6 -2 -5 -13z"/>
<path d="M1295 940 c3 -5 8 -10 11 -10 2 0 4 5 4 10 0 6 -5 10 -11 10 -5 0 -7
-4 -4 -10z"/>
<path d="M923 1613 c-7 -2 -13 -14 -14 -26 0 -12 -3 -17 -5 -10 -4 8 -13 5
-29 -9 -14 -12 -22 -26 -18 -31 4 -6 13 -2 22 9 16 20 23 24 40 24 5 0 8 8 7
18 0 9 5 16 12 14 8 -1 11 2 7 8 -3 5 -7 10 -8 9 -1 0 -8 -3 -14 -6z"/>
<path d="M270 929 c0 -5 5 -7 10 -4 6 3 10 8 10 11 0 2 -4 4 -10 4 -5 0 -10
-5 -10 -11z"/>
<path d="M2187 909 c7 -7 15 -10 18 -7 3 3 -2 9 -12 12 -14 6 -15 5 -6 -5z"/>
</g>
</svg>
